<?xml version="1.0" encoding="UTF-8"?>
<svg id="Livello_1" data-name="Livello 1" xmlns="http://www.w3.org/2000/svg" version="1.1" viewBox="0 0 1029.7 375.8">
  <defs>
    <style>
      .cls-1 {
        fill: #103657;
      }

      .cls-1, .cls-2 {
        stroke-width: 0px;
      }

      .cls-2 {
        fill: #ac7e59;
      }
    </style>
  </defs>
  <g>
    <g>
      <polygon class="cls-1" points="499.8 103.5 499.8 112 486 112 486 146.9 477 146.9 477 112 463.3 112 463.3 103.5 499.8 103.5"/>
      <polygon class="cls-1" points="535.3 138.1 535.3 146.9 504 146.9 504 103.5 534.8 103.5 534.8 111.8 513 111.8 513 120.5 534 120.5 534 128.7 513 128.7 513 138.1 535.3 138.1"/>
      <path class="cls-1" d="M562.2,147.9c-3.2,0-6.2-.6-8.9-1.7-2.7-1.1-5.2-2.7-7.2-4.8s-3.7-4.5-4.8-7.2c-1.1-2.7-1.7-5.7-1.7-8.9s.6-6.2,1.7-8.9c1.1-2.7,2.7-5.1,4.8-7.2,2.1-2.1,4.5-3.7,7.2-4.8,2.7-1.1,5.7-1.7,8.9-1.7s5.5.5,8,1.4c2.5.9,4.7,2.2,6.7,3.9,2,1.7,3.6,3.7,4.9,6l-7.5,5c-1.1-2.3-2.7-4.2-4.9-5.6-2.2-1.4-4.6-2.1-7.3-2.1s-3.7.3-5.4,1.1-3.1,1.7-4.3,3-2.2,2.8-2.8,4.5-1,3.5-1,5.6.3,3.8,1,5.5,1.6,3.2,2.8,4.5,2.7,2.3,4.3,3c1.7.7,3.5,1.1,5.4,1.1s3.8-.4,5.5-1.1c1.7-.8,3.2-1.8,4.4-3.2s2.2-2.9,2.8-4.7l8.1,3.8c-1.1,2.8-2.7,5.2-4.7,7.2-2,2.1-4.4,3.7-7.2,4.9-2.7,1.2-5.7,1.8-8.9,1.8Z"/>
      <polygon class="cls-1" points="629 103.5 629 146.9 618.3 146.9 598.6 115.4 598.6 146.9 589.6 146.9 589.6 103.5 600.3 103.5 620 135 620 103.5 629 103.5"/>
      <path class="cls-1" d="M659.7,147.9c-3.3,0-6.3-.6-9.1-1.7-2.8-1.2-5.3-2.8-7.4-4.8-2.1-2.1-3.7-4.5-4.9-7.2-1.2-2.7-1.8-5.7-1.8-8.9s.6-6.1,1.8-8.9c1.2-2.7,2.8-5.1,4.9-7.2,2.1-2.1,4.6-3.7,7.4-4.8,2.8-1.2,5.8-1.7,9-1.7s6.3.6,9.1,1.7,5.3,2.8,7.4,4.8c2.1,2.1,3.7,4.5,4.9,7.2,1.2,2.7,1.8,5.7,1.8,8.9s-.6,6.1-1.8,8.9c-1.2,2.7-2.8,5.1-4.9,7.2-2.1,2.1-4.6,3.7-7.4,4.8s-5.8,1.7-9,1.7ZM659.6,139.3c2,0,3.9-.3,5.6-1.1,1.7-.7,3.2-1.7,4.5-2.9s2.2-2.7,2.9-4.5c.7-1.7,1.1-3.6,1.1-5.7s-.4-3.9-1.1-5.6c-.7-1.7-1.7-3.2-2.9-4.4-1.3-1.3-2.7-2.2-4.5-2.9s-3.6-1.1-5.6-1.1-3.8.3-5.5,1.1c-1.7.7-3.2,1.7-4.5,2.9s-2.2,2.7-2.9,4.5c-.7,1.7-1.1,3.6-1.1,5.6s.3,3.8,1.1,5.6c.7,1.7,1.7,3.2,2.9,4.5,1.3,1.3,2.7,2.2,4.5,2.9,1.7.7,3.6,1.1,5.5,1.1Z"/>
      <path class="cls-1" d="M739.7,103.5h-10.4l-17.1,43.3h9.6l3-7.9h19.3l3,7.9h9.6l-17-43.3ZM728.1,130.6l6.5-17,6.4,17h-12.9Z"/>
      <path class="cls-1" d="M801.1,116.7c-1.1-2.6-2.7-4.9-4.8-6.9-2.1-2-4.4-3.5-7.1-4.6-2.7-1.1-5.6-1.6-8.8-1.6h-19.4v43.3h19.6c3.1,0,6-.6,8.7-1.7,2.7-1.1,5-2.7,7.1-4.6,2-2,3.6-4.3,4.7-6.9,1.1-2.6,1.7-5.5,1.7-8.5s-.6-5.9-1.7-8.5ZM792.7,130.4c-.7,1.6-1.6,3-2.8,4.2-1.2,1.2-2.5,2.1-4.1,2.8-1.6.7-3.3,1-5.1,1h-10.7v-26.3h10.6c1.8,0,3.5.4,5.1,1,1.6.7,3,1.6,4.1,2.8,1.2,1.2,2.1,2.6,2.8,4.2.7,1.6,1,3.3,1,5.2s-.3,3.6-1,5.2Z"/>
      <polygon class="cls-1" points="846.7 103.5 830.1 146.9 820.8 146.9 804.5 103.5 814.1 103.5 825.6 137.8 837 103.5 846.7 103.5"/>
      <path class="cls-1" d="M868.8,103.5h-10.3l-17.1,43.3h9.6l3-7.9h19.3l3,7.9h9.6l-17-43.3ZM857.1,130.6l6.5-17,6.5,17h-12.9Z"/>
      <polygon class="cls-1" points="929.1 103.5 929.1 146.9 918.4 146.9 898.7 115.3 898.7 146.9 889.7 146.9 889.7 103.5 900.4 103.5 920.1 135 920.1 103.5 929.1 103.5"/>
      <path class="cls-1" d="M959.3,147.9c-3.2,0-6.2-.6-8.9-1.7-2.7-1.1-5.2-2.7-7.2-4.8-2.1-2.1-3.7-4.5-4.8-7.2-1.1-2.7-1.7-5.7-1.7-8.9s.6-6.2,1.7-8.9c1.1-2.7,2.7-5.1,4.8-7.2,2.1-2.1,4.5-3.7,7.2-4.8,2.7-1.1,5.7-1.7,8.9-1.7s5.5.5,8,1.4c2.5.9,4.7,2.2,6.7,3.9,2,1.7,3.6,3.7,4.9,6l-7.5,5c-1.1-2.3-2.7-4.2-4.9-5.6s-4.6-2.1-7.3-2.1-3.7.3-5.4,1.1-3.1,1.7-4.3,3-2.2,2.8-2.8,4.5-1,3.5-1,5.6.3,3.8,1,5.5,1.6,3.2,2.8,4.5,2.7,2.3,4.3,3c1.7.7,3.5,1.1,5.4,1.1s3.8-.4,5.5-1.1c1.7-.8,3.2-1.8,4.4-3.2s2.2-2.9,2.8-4.7l8.1,3.8c-1.1,2.8-2.7,5.2-4.7,7.2-2,2.1-4.4,3.7-7.2,4.9-2.7,1.2-5.7,1.8-8.9,1.8Z"/>
      <polygon class="cls-1" points="1018.2 138.1 1018.2 146.9 987 146.9 987 103.5 1017.7 103.5 1017.7 111.8 996 111.8 996 120.5 1017 120.5 1017 128.7 996 128.7 996 138.1 1018.2 138.1"/>
    </g>
    <g>
      <polygon class="cls-2" points="529.6 170.3 529.6 213.6 520.6 213.6 520.6 183 507.5 213.6 499.1 213.6 486 183.1 486 213.6 477 213.6 477 170.3 488.7 170.3 503.2 203.2 517.9 170.3 529.6 170.3"/>
      <path class="cls-2" d="M581.9,193.1h0v-.5c0,.2,0,.4,0,.5Z"/>
      <path class="cls-2" d="M581.9,189v3.6c0,.2,0,.4,0,.5,0,2.9-.7,5.6-1.7,8.1-1.1,2.7-2.7,5-4.6,7-2,2-4.3,3.5-6.9,4.7-2.7,1.1-5.5,1.7-8.6,1.7s-6.1-.6-8.8-1.7c-2.7-1.1-5.1-2.8-7.2-4.8-2.1-2.1-3.6-4.5-4.8-7.2-1.1-2.8-1.7-5.7-1.7-9s.6-6.1,1.7-8.8c1.2-2.7,2.8-5.1,4.8-7.2,2-2.1,4.4-3.7,7.2-4.8,2.7-1.2,5.7-1.7,8.9-1.7s6.7.7,9.6,2.2c3,1.4,5.5,3.4,7.5,5.8l-7.1,5.2c-1.2-1.4-2.7-2.6-4.4-3.5-1.8-.9-3.7-1.3-5.6-1.3s-3.7.4-5.3,1.1-3.1,1.7-4.3,3c-1.2,1.3-2.2,2.8-2.9,4.5-.7,1.7-1,3.6-1,5.5s.4,3.8,1,5.6c.7,1.7,1.6,3.2,2.9,4.5,1.2,1.3,2.7,2.3,4.3,3,1.6.7,3.4,1.1,5.2,1.1s3.6-.3,5.1-1c1.6-.7,3-1.6,4.2-2.9,1.2-1.2,2.2-2.6,2.9-4.3.3-.7.5-1.5.7-2.2h-12.9v-6.7h21.8Z"/>
      <path class="cls-2" d="M610.8,170.3h-10.4l-17.1,43.3h9.6l3-7.9h19.3l3,7.9h9.6l-17-43.3ZM599.1,197.3l6.5-17,6.5,17h-12.9Z"/>
    </g>
    <g>
      <path class="cls-1" d="M508.2,261.2c-1.1-1.9-2.7-3.4-4.6-4.5-.5-.3-1-.5-1.5-.7,1.3-.7,2.3-1.6,3.2-2.6,1.4-1.6,2.1-3.5,2.1-5.6s-.5-4-1.6-5.6c-1-1.6-2.5-2.9-4.3-3.9-1.8-.9-3.9-1.4-6.3-1.4h-18.3v43.3h19.9c2.5,0,4.8-.6,6.7-1.6,2-1.1,3.5-2.6,4.6-4.5,1.1-1.9,1.7-4,1.7-6.5s-.6-4.6-1.7-6.5ZM482.5,242.1h12.9c1.3,0,2.4.3,3.4.8.9.6,1.7,1.4,2.3,2.3.6.9.8,2.1.8,3.4s-.3,2.3-.8,3.4c-.6,1-1.4,1.8-2.3,2.3-1,.6-2.1.8-3.4.8h-12.9v-13.1ZM503.4,271.5c-.7,1.1-1.5,2-2.7,2.7-1.1.7-2.4,1-3.8,1h-14.4v-15h14.4c1.4,0,2.7.3,3.8,1,1.1.7,2,1.5,2.7,2.6.7,1.1,1,2.4,1,3.8s-.3,2.7-1,3.8Z"/>
      <path class="cls-1" d="M537.9,263.3c2-.2,3.9-.7,5.5-1.7,2.1-1.2,3.8-2.8,5-4.8,1.2-2,1.9-4.2,1.9-6.6s-.6-4.7-1.9-6.7c-1.2-2-2.9-3.6-5-4.7-2.1-1.1-4.5-1.7-7.1-1.7h-19v43.3h5.5v-17h8.4l14,17h6.7l-14.1-17ZM522.8,258.3v-16.2h13.5c1.6,0,3,.4,4.3,1.1,1.3.7,2.3,1.7,3,2.9.7,1.2,1.1,2.6,1.1,4.1s-.4,2.8-1.1,4.1c-.7,1.2-1.8,2.2-3,2.9-1.3.7-2.7,1.1-4.3,1.1h-13.5Z"/>
      <path class="cls-1" d="M577.3,281.3c-3.2,0-6.1-.6-8.9-1.7-2.7-1.2-5.1-2.8-7.2-4.8-2.1-2.1-3.7-4.5-4.8-7.2-1.2-2.7-1.7-5.7-1.7-8.9s.6-6.1,1.7-8.9c1.2-2.7,2.8-5.1,4.8-7.2s4.5-3.7,7.2-4.8c2.7-1.2,5.7-1.7,8.9-1.7s6.1.6,8.9,1.7,5.1,2.8,7.2,4.8c2.1,2.1,3.7,4.5,4.8,7.2,1.2,2.7,1.7,5.7,1.7,8.9s-.6,6.1-1.7,8.9c-1.2,2.7-2.8,5.1-4.8,7.2-2.1,2.1-4.5,3.7-7.2,4.8-2.7,1.2-5.7,1.7-8.9,1.7ZM577.3,276.2c2.6,0,4.9-.4,7-1.2,2.1-.8,3.9-2,5.4-3.5,1.5-1.5,2.7-3.4,3.5-5.5.8-2.2,1.2-4.6,1.2-7.3s-.4-5.1-1.2-7.3c-.8-2.2-2-4-3.5-5.5-1.5-1.5-3.3-2.7-5.4-3.5-2.1-.8-4.4-1.2-7-1.2s-4.9.4-7,1.2c-2.1.8-3.9,2-5.4,3.5-1.5,1.5-2.7,3.4-3.5,5.5-.8,2.2-1.2,4.6-1.2,7.3s.4,5.1,1.2,7.3c.8,2.2,2,4,3.5,5.5,1.5,1.5,3.3,2.7,5.4,3.5,2.1.8,4.4,1.2,7,1.2Z"/>
      <polygon class="cls-1" points="640.2 280.3 633.4 280.3 614.6 258.7 612.6 258.7 612.6 280.3 607.2 280.3 607.2 237 612.6 237 612.6 256.9 631.6 237 638.2 237 619.7 256.8 640.2 280.3"/>
      <polygon class="cls-1" points="675.1 275.2 675.1 280.3 645.7 280.3 645.7 237 674.6 237 674.6 241.9 651.1 241.9 651.1 255.5 673.9 255.5 673.9 260.4 651.1 260.4 651.1 275.2 675.1 275.2"/>
      <path class="cls-1" d="M703.1,263.3c2-.2,3.9-.7,5.5-1.7,2.1-1.2,3.8-2.8,5-4.8,1.2-2,1.9-4.2,1.9-6.6s-.6-4.7-1.9-6.7c-1.2-2-2.9-3.6-5-4.7-2.1-1.1-4.5-1.7-7.1-1.7h-19v43.3h5.5v-17h8.4l14,17h6.7l-14.1-17ZM688,258.3v-16.2h13.5c1.6,0,3,.4,4.3,1.1,1.3.7,2.3,1.7,3,2.9.7,1.2,1.1,2.6,1.1,4.1s-.4,2.8-1.1,4.1c-.7,1.2-1.8,2.2-3,2.9-1.3.7-2.7,1.1-4.3,1.1h-13.5Z"/>
      <path class="cls-1" d="M762.7,281.3c-3,0-5.8-.6-8.2-1.7-2.5-1.1-4.4-2.8-5.9-5-1.4-2.2-2.2-4.8-2.2-7.8h5.6c0,2.1.5,3.8,1.6,5.2,1.1,1.4,2.4,2.4,4,3.1,1.6.7,3.3,1,5,1s3.5-.3,5-1c1.5-.7,2.7-1.6,3.7-2.8.9-1.2,1.4-2.6,1.4-4.3s-.4-3.3-1.1-4.4c-.7-1-1.7-1.9-2.8-2.4-1.1-.6-2.3-1-3.6-1.3s-2.4-.6-3.3-.9c-.8-.2-1.7-.5-2.8-.8-1.1-.3-2.3-.6-3.4-1.1-1.2-.5-2.3-1.1-3.3-1.9s-1.8-1.8-2.5-3c-.6-1.2-1-2.8-1-4.6s.6-4.5,1.8-6.3c1.2-1.8,2.8-3.1,4.9-4.1,2-1,4.2-1.5,6.5-1.5s4.7.5,6.8,1.5c2.1,1,3.8,2.4,5.1,4.2s1.9,3.8,1.9,6h-5.6c0-1.3-.4-2.4-1.1-3.4-.7-1-1.7-1.8-2.9-2.4-1.2-.6-2.5-.9-3.9-.9s-2.7.2-3.9.6c-1.2.4-2.2,1-2.9,1.9-.7.9-1.1,2-1.1,3.4s.4,2.6,1.1,3.5c.8.8,1.7,1.5,2.8,1.9,1.1.4,2.3.8,3.5,1,1.2.2,2.2.4,3,.7.6.2,1.4.4,2.5.7,1.1.3,2.2.7,3.5,1.2,1.2.5,2.4,1.3,3.6,2.2,1.1.9,2.1,2.2,2.8,3.6.7,1.5,1.1,3.3,1.1,5.5s-.7,5.4-2.1,7.5c-1.4,2.1-3.3,3.7-5.6,4.9-2.3,1.1-4.9,1.7-7.8,1.7Z"/>
      <path class="cls-1" d="M805.6,263.3c2-.2,3.9-.7,5.6-1.7,2.1-1.2,3.8-2.8,5-4.8,1.2-2,1.9-4.2,1.9-6.6s-.6-4.7-1.9-6.7c-1.2-2-2.9-3.6-5-4.7-2.1-1.1-4.5-1.7-7.1-1.7h-18.9v43.3h5.4v-17h8.4l14,17h6.7l-14.1-17ZM790.5,242.1h13.5c1.6,0,3,.4,4.3,1.1,1.3.7,2.3,1.7,3.1,2.9.7,1.2,1.1,2.6,1.1,4.1s-.4,2.8-1.1,4.1c-.7,1.2-1.8,2.2-3.1,2.9-1.3.7-2.7,1.1-4.3,1.1h-13.5v-16.2Z"/>
      <polygon class="cls-1" points="853.7 275.3 853.7 280.3 825.1 280.3 825.1 237 830.5 237 830.5 275.3 853.7 275.3"/>
    </g>
  </g>
  <polygon class="cls-1" points="11.5 115.7 218.3 10.3 288.4 46 288.4 92.9 218.3 57.9 194.5 69.8 194.5 305.9 218.3 317.8 250.8 301.6 250.9 222.3 223.2 222.3 223.2 183 288.4 183 288.4 329.8 218.3 365.5 155.2 333.3 155.2 89.4 122.6 105.7 122.6 316.8 83.3 296.8 83.4 125.3 50.8 141.5 50.8 280.3 11.5 260.2 11.5 115.7"/>
  <path class="cls-2" d="M306.5,55.2v265.4l37.6-19.1v-79.2h43.4v57.1l37.6-19.1V115.6l-118.6-60.5ZM387.5,182.9h-43.5v-62.2l43.5,20.8v41.4Z"/>
</svg>